<?xml version="1.0" standalone="no"?>
<!DOCTYPE svg PUBLIC "-//W3C//DTD SVG 20010904//EN"
 "http://www.w3.org/TR/2001/REC-SVG-20010904/DTD/svg10.dtd">
<svg version="1.0" xmlns="http://www.w3.org/2000/svg"
 width="512.000000pt" height="512.000000pt" viewBox="0 0 512.000000 512.000000"
 preserveAspectRatio="xMidYMid meet">

<g transform="translate(0.000000,512.000000) scale(0.100000,-0.100000)"
fill="#000000" stroke="none">
<path d="M1253 5021 c-94 -32 -163 -103 -197 -204 -29 -86 -14 -193 39 -271
l25 -37 0 -470 0 -470 25 -24 c24 -25 26 -25 215 -25 189 0 191 0 215 25 l25
24 0 473 1 473 23 28 23 28 29 -24 c154 -127 415 -244 634 -283 127 -24 371
-24 500 0 221 39 478 155 634 283 l29 24 23 -28 23 -28 1 -473 0 -473 25 -24
c24 -25 26 -25 215 -25 189 0 191 0 215 25 l25 24 0 470 0 470 25 37 c117 172
29 416 -173 479 -108 34 -234 2 -318 -81 -39 -40 -84 -125 -84 -161 0 -41
-215 -200 -356 -263 -178 -80 -332 -113 -529 -114 -158 0 -247 13 -385 56
-160 51 -289 121 -432 234 -58 47 -68 60 -82 107 -53 182 -237 279 -413 218z
m174 -157 c66 -32 103 -105 89 -179 -9 -48 -73 -112 -120 -121 -59 -10 -103 3
-146 46 -126 126 16 330 177 254z m2400 0 c66 -32 103 -105 89 -179 -9 -48
-73 -112 -120 -121 -59 -10 -103 3 -146 46 -126 126 16 330 177 254z m-2387
-821 l0 -363 -80 0 -80 0 0 363 0 362 80 0 80 0 0 -362z m2400 0 l0 -363 -80
0 -80 0 0 363 0 362 80 0 80 0 0 -362z"/>
<path d="M1867 3738 c-19 -20 -45 -139 -191 -898 -93 -481 -171 -877 -172
-879 -2 -2 -70 50 -153 115 -126 101 -152 126 -166 163 -29 74 -116 151 -170
151 -20 0 -20 0 19 59 132 196 106 453 -62 613 -196 187 -491 182 -675 -11
-160 -167 -180 -411 -51 -602 19 -28 34 -52 34 -54 0 -1 -12 -5 -27 -8 -74
-16 -144 -93 -164 -181 -10 -44 -9 -62 5 -109 32 -109 124 -177 244 -177 l62
0 0 -680 0 -680 -135 0 c-131 0 -137 -1 -160 -25 -25 -24 -25 -26 -25 -215 0
-189 0 -191 25 -215 l24 -25 511 0 511 0 24 25 c25 24 25 26 25 215 0 189 0
191 -25 215 -23 24 -29 25 -160 25 l-135 0 0 680 0 680 56 0 c79 0 128 17 179
62 28 25 49 37 57 32 7 -5 67 -51 133 -104 66 -52 130 -103 143 -111 l22 -16
-95 -488 c-52 -268 -95 -497 -95 -507 0 -10 11 -30 25 -43 l24 -25 1231 0
1231 0 24 25 c14 13 25 33 25 43 0 10 -43 239 -95 507 -52 269 -94 489 -92
490 15 9 150 115 215 167 46 38 86 68 89 68 3 0 24 -17 48 -38 51 -45 100 -62
179 -62 l56 0 0 -680 0 -680 -135 0 c-131 0 -137 -1 -160 -25 -25 -24 -25 -26
-25 -215 0 -189 0 -191 25 -215 l24 -25 511 0 511 0 24 25 c25 24 25 26 25
215 0 189 0 191 -25 215 -23 24 -29 25 -160 25 l-135 0 0 680 0 680 56 0 c87
0 133 18 189 75 94 93 101 218 17 315 -34 40 -97 80 -127 80 -21 0 -20 4 19
60 134 195 106 456 -67 617 -98 91 -201 133 -327 133 -126 0 -229 -42 -327
-133 -173 -162 -201 -419 -67 -618 39 -59 39 -59 19 -59 -54 0 -141 -77 -170
-151 -14 -37 -40 -62 -163 -161 -81 -64 -150 -113 -153 -110 -4 4 -83 399
-175 877 -146 753 -172 873 -191 893 l-22 22 -671 0 -671 0 -22 -22z m1268
-160 c3 -13 80 -403 170 -868 154 -790 164 -846 147 -858 -41 -32 -243 -126
-338 -158 -400 -134 -823 -120 -1212 40 -59 24 -138 62 -177 84 -57 33 -70 44
-68 64 1 23 321 1683 328 1706 4 9 127 12 574 12 l571 0 5 -22z m-2344 -579
c108 -58 164 -153 164 -279 0 -129 -67 -234 -184 -289 -80 -37 -193 -37 -267
1 -75 39 -107 70 -145 140 -31 58 -34 70 -33 148 0 72 4 93 26 136 38 73 69
106 129 139 71 38 102 45 182 40 51 -3 81 -11 128 -36z m3840 0 c108 -58 164
-153 164 -279 0 -129 -67 -234 -184 -289 -80 -37 -193 -37 -267 1 -75 39 -107
70 -145 140 -31 58 -34 70 -33 148 0 72 4 93 26 136 38 73 69 106 129 139 71
38 102 45 182 40 51 -3 81 -11 128 -36z m-3637 -770 c55 -26 55 -112 0 -138
-35 -15 -673 -15 -708 0 -35 16 -52 61 -37 98 7 16 22 33 34 39 31 15 678 16
711 1z m3840 0 c55 -26 55 -112 0 -138 -35 -15 -673 -15 -708 0 -35 16 -52 61
-37 98 7 16 22 33 34 39 31 15 678 16 711 1z m-2965 -659 c355 -141 768 -168
1146 -76 133 32 226 66 368 134 64 30 119 53 121 51 2 -2 36 -173 75 -379 40
-206 75 -385 78 -397 l5 -23 -1102 0 -1102 0 5 23 c3 12 38 189 77 392 39 204
72 375 75 382 2 7 30 -3 78 -28 41 -21 120 -57 176 -79z m-829 -1250 l0 -80
-400 0 -400 0 0 80 0 80 400 0 400 0 0 -80z m3840 0 l0 -80 -400 0 -400 0 0
80 0 80 400 0 400 0 0 -80z"/>
<path d="M2516 3029 c-10 -6 -45 -67 -77 -135 -66 -139 -47 -126 -224 -160
-103 -20 -135 -43 -135 -96 0 -29 12 -45 96 -125 l97 -92 -17 -123 c-9 -68
-16 -133 -16 -146 0 -31 43 -72 76 -72 15 0 76 27 136 61 l108 61 108 -61 c60
-34 121 -61 136 -61 33 0 76 41 76 72 0 13 -7 78 -16 146 l-17 123 97 92 c82
78 96 97 96 123 0 57 -25 74 -145 100 -61 13 -120 26 -133 29 -18 4 -36 33
-81 129 -34 72 -67 129 -79 135 -26 14 -61 14 -86 0z m79 -330 c30 -66 50 -80
135 -94 25 -4 48 -9 52 -11 4 -3 -18 -29 -49 -59 l-56 -54 7 -71 c4 -40 10
-78 13 -86 3 -7 -27 3 -67 24 l-72 37 -71 -39 c-44 -24 -68 -32 -64 -23 3 8 9
47 13 87 l7 71 -56 54 c-31 30 -53 56 -49 59 4 2 27 7 52 11 85 14 105 28 135
94 16 33 31 61 35 61 4 0 19 -28 35 -61z"/>
</g>
</svg>
